<svg xmlns="http://www.w3.org/2000/svg" width="1920" height="720" viewBox="0 0 1920 720">
<rect width="1920" height="720" rx="8" fill="#0d1117"/>
<g font-family="Arial,Helvetica,sans-serif" text-anchor="middle">
<text x="960" y="155" fill="#f0f6fc" font-size="72" font-weight="700">📊 Data Science &amp; Analytics</text>

<!-- Jupyter -->
<g><rect x="90" y="270" width="330" height="330" rx="30" fill="#161d26"/>
<circle cx="255" cy="435" r="105" fill="none" stroke="#f37726" stroke-width="28" stroke-dasharray="300 360"/>
<circle cx="255" cy="435" r="105" fill="none" stroke="#f37726" stroke-width="28" stroke-dasharray="300 360" stroke-dashoffset="330"/>
<circle cx="255" cy="330" r="10" fill="#9aa0a6"/><circle cx="255" cy="540" r="10" fill="#9aa0a6"/>
<text x="255" y="448" fill="#f0f6fc" font-size="44" font-weight="500">jupyter</text>
<text x="255" y="560" fill="#f0f6fc" font-size="46" font-weight="600">Jupyter</text></g>

<!-- NumPy -->
<g><rect x="465" y="270" width="330" height="330" rx="30" fill="#161d26"/>
<g stroke="#4d8de7" stroke-width="18" fill="#4aa9c8">
<polygon points="630,300 720,350 630,400 540,350"/><polygon points="540,350 630,400 630,535 540,485"/><polygon points="720,350 630,400 630,535 720,485"/>
</g><polygon points="630,400 720,350 720,485 630,535" fill="#45a9c9"/>
<text x="630" y="560" fill="#4d8de7" font-size="46" font-weight="700">NumPy</text></g>

<!-- Pandas -->
<g><rect x="840" y="270" width="330" height="330" rx="30" fill="#161d26"/>
<g fill="#f0f6fc"><rect x="900" y="350" width="28" height="150"/><rect x="950" y="300" width="28" height="200"/><rect x="1000" y="380" width="28" height="120"/><rect x="1050" y="290" width="28" height="210"/></g>
<rect x="945" y="420" width="40" height="40" fill="#ffd000"/><rect x="1000" y="440" width="40" height="40" fill="#e90087"/>
<text x="1005" y="560" fill="#f0f6fc" font-size="46" font-weight="700">Pandas</text></g>

<!-- Matplotlib -->
<g><rect x="1215" y="270" width="330" height="330" rx="30" fill="#161d26"/>
<circle cx="1380" cy="405" r="115" fill="#f7f7f7" stroke="#08749b" stroke-width="5"/>
<g stroke="#777" stroke-width="2"><line x1="1265" y1="405" x2="1495" y2="405"/><line x1="1380" y1="290" x2="1380" y2="520"/><circle cx="1380" cy="405" r="65" fill="none"/><circle cx="1380" cy="405" r="95" fill="none"/></g>
<g fill-opacity=".75" stroke="#555" stroke-width="2"><path d="M1380 405 L1330 315 L1370 300 Z" fill="#ff9955"/><path d="M1380 405 L1470 350 L1490 390 Z" fill="#ffcc33"/><path d="M1380 405 L1435 490 L1405 510 Z" fill="#ff9955"/><path d="M1380 405 L1350 480 L1325 465 Z" fill="#65c96b"/></g>
<text x="1380" y="560" fill="#39bdf8" font-size="42" font-weight="700">Matplotlib</text></g>

<!-- Seaborn -->
<g><rect x="1590" y="270" width="240" height="330" rx="30" fill="#161d26"/>
<circle cx="1710" cy="405" r="105" fill="#f8f8f8" stroke="#fff" stroke-width="4"/>
<path d="M1610 370 Q1710 315 1810 370 L1810 405 Q1710 350 1610 405 Z" fill="#8cc8d8"/>
<path d="M1610 430 Q1710 370 1810 430 L1810 510 L1610 510 Z" fill="#5e759e"/>
<path d="M1610 440 Q1710 385 1810 440" fill="none" stroke="#fff" stroke-width="4"/>
<g fill="#413b78"><rect x="1640" y="445" width="18" height="65"/><rect x="1663" y="425" width="18" height="85"/><rect x="1686" y="410" width="18" height="100"/><rect x="1709" y="430" width="18" height="80"/><rect x="1732" y="450" width="18" height="60"/></g>
<g fill="#8ccfcf" opacity=".8"><circle cx="1640" cy="335" r="4"/><circle cx="1660" cy="325" r="4"/><circle cx="1680" cy="335" r="4"/><circle cx="1700" cy="320" r="4"/><circle cx="1720" cy="330" r="4"/><circle cx="1740" cy="322" r="4"/><circle cx="1760" cy="338" r="4"/></g>
<text x="1710" y="560" fill="#8295d5" font-size="38" font-weight="700">Seaborn</text></g>
</g></svg>